<svg xmlns="http://www.w3.org/2000/svg" viewBox="0 0 1280 800" width="1280" height="800" role="img" aria-label="Aria AI Writing Assistant preview">
  <defs>
    <linearGradient id="bg" x1="0" y1="0" x2="1" y2="1">
      <stop offset="0" stop-color="#050816"/>
      <stop offset="1" stop-color="#0a1024"/>
    </linearGradient>
    <radialGradient id="glow" cx="0.7" cy="0.25" r="0.6">
      <stop offset="0" stop-color="#8b5cf6" stop-opacity="0.45"/>
      <stop offset="1" stop-color="#8b5cf6" stop-opacity="0"/>
    </radialGradient>
    <linearGradient id="accent" x1="0" y1="0" x2="1" y2="0">
      <stop offset="0" stop-color="#8b5cf6"/>
      <stop offset="1" stop-color="#3b82f6"/>
    </linearGradient>
  </defs>
  <rect width="1280" height="800" fill="url(#bg)"/>
  <rect width="1280" height="800" fill="url(#glow)"/>
  <g transform="translate(150 150)">
    <rect width="980" height="500" rx="22" fill="#ffffff" fill-opacity="0.04" stroke="#ffffff" stroke-opacity="0.10"/>
    <circle cx="34" cy="34" r="7" fill="#ef4444" fill-opacity="0.7"/>
    <circle cx="60" cy="34" r="7" fill="#f5b545" fill-opacity="0.7"/>
    <circle cx="86" cy="34" r="7" fill="#10b981" fill-opacity="0.7"/>
    <rect x="60" y="110" width="860" height="16" rx="8" fill="#ffffff" fill-opacity="0.16"/>
    <rect x="60" y="150" width="760" height="12" rx="6" fill="#ffffff" fill-opacity="0.10"/>
    <rect x="60" y="184" width="820" height="12" rx="6" fill="#ffffff" fill-opacity="0.10"/>
    <rect x="60" y="218" width="540" height="12" rx="6" fill="#ffffff" fill-opacity="0.10"/>
    <rect x="60" y="280" width="430" height="14" rx="7" fill="url(#accent)" fill-opacity="0.7"/>
    <rect x="60" y="312" width="700" height="12" rx="6" fill="#ffffff" fill-opacity="0.08"/>
    <rect x="60" y="346" width="640" height="12" rx="6" fill="#ffffff" fill-opacity="0.08"/>
    <rect x="60" y="410" width="860" height="48" rx="12" fill="#ffffff" fill-opacity="0.05" stroke="#ffffff" stroke-opacity="0.08"/>
    <circle cx="892" cy="434" r="16" fill="url(#accent)"/>
  </g>
  <text x="150" y="710" font-family="Inter, system-ui, sans-serif" font-size="34" font-weight="700" fill="#f8fafc">Aria — AI Writing Assistant</text>
</svg>
