<svg xmlns="http://www.w3.org/2000/svg" viewBox="0 0 1280 800" width="1280" height="800" role="img" aria-label="DevNotes preview">
  <defs>
    <linearGradient id="bg" x1="0" y1="0" x2="1" y2="1">
      <stop offset="0" stop-color="#050816"/>
      <stop offset="1" stop-color="#0a1024"/>
    </linearGradient>
    <radialGradient id="glow" cx="0.75" cy="0.3" r="0.6">
      <stop offset="0" stop-color="#3b82f6" stop-opacity="0.38"/>
      <stop offset="1" stop-color="#3b82f6" stop-opacity="0"/>
    </radialGradient>
    <linearGradient id="accent" x1="0" y1="0" x2="1" y2="0">
      <stop offset="0" stop-color="#3b82f6"/>
      <stop offset="1" stop-color="#8b5cf6"/>
    </linearGradient>
  </defs>
  <rect width="1280" height="800" fill="url(#bg)"/>
  <rect width="1280" height="800" fill="url(#glow)"/>
  <g transform="translate(190 170)">
    <rect width="900" height="460" rx="22" fill="#ffffff" fill-opacity="0.04" stroke="#ffffff" stroke-opacity="0.10"/>
    <rect x="0" y="0" width="260" height="460" rx="22" fill="#ffffff" fill-opacity="0.03"/>
    <rect x="32" y="48" width="160" height="14" rx="7" fill="url(#accent)" fill-opacity="0.7"/>
    <rect x="32" y="96" width="190" height="10" rx="5" fill="#ffffff" fill-opacity="0.10"/>
    <rect x="32" y="128" width="150" height="10" rx="5" fill="#ffffff" fill-opacity="0.10"/>
    <rect x="32" y="160" width="180" height="10" rx="5" fill="#ffffff" fill-opacity="0.10"/>
    <rect x="320" y="56" width="420" height="18" rx="9" fill="#ffffff" fill-opacity="0.16"/>
    <rect x="320" y="110" width="540" height="12" rx="6" fill="#ffffff" fill-opacity="0.09"/>
    <rect x="320" y="142" width="500" height="12" rx="6" fill="#ffffff" fill-opacity="0.09"/>
    <rect x="320" y="174" width="540" height="12" rx="6" fill="#ffffff" fill-opacity="0.09"/>
    <rect x="320" y="226" width="300" height="12" rx="6" fill="#ffffff" fill-opacity="0.09"/>
  </g>
  <text x="190" y="700" font-family="Inter, system-ui, sans-serif" font-size="32" font-weight="700" fill="#f8fafc">DevNotes</text>
</svg>
