<svg xmlns="http://www.w3.org/2000/svg" viewBox="0 0 1280 800" width="1280" height="800" role="img" aria-label="Nova Analytics Dashboard preview">
  <defs>
    <linearGradient id="bg" x1="0" y1="0" x2="1" y2="1">
      <stop offset="0" stop-color="#050816"/>
      <stop offset="1" stop-color="#0a1024"/>
    </linearGradient>
    <radialGradient id="glow" cx="0.75" cy="0.2" r="0.6">
      <stop offset="0" stop-color="#3b82f6" stop-opacity="0.45"/>
      <stop offset="1" stop-color="#3b82f6" stop-opacity="0"/>
    </radialGradient>
    <linearGradient id="accent" x1="0" y1="0" x2="1" y2="0">
      <stop offset="0" stop-color="#3b82f6"/>
      <stop offset="1" stop-color="#06b6d4"/>
    </linearGradient>
  </defs>
  <rect width="1280" height="800" fill="url(#bg)"/>
  <rect width="1280" height="800" fill="url(#glow)"/>
  <g transform="translate(150 150)">
    <rect width="980" height="500" rx="22" fill="#ffffff" fill-opacity="0.04" stroke="#ffffff" stroke-opacity="0.10"/>
    <circle cx="34" cy="34" r="7" fill="#ef4444" fill-opacity="0.7"/>
    <circle cx="60" cy="34" r="7" fill="#f5b545" fill-opacity="0.7"/>
    <circle cx="86" cy="34" r="7" fill="#10b981" fill-opacity="0.7"/>
    <rect x="34" y="86" width="220" height="14" rx="7" fill="#ffffff" fill-opacity="0.18"/>
    <rect x="34" y="118" width="140" height="10" rx="5" fill="#ffffff" fill-opacity="0.10"/>
    <rect x="34" y="170" width="280" height="300" rx="14" fill="#ffffff" fill-opacity="0.05"/>
    <rect x="60" y="200" width="120" height="10" rx="5" fill="#ffffff" fill-opacity="0.12"/>
    <rect x="60" y="230" width="200" height="36" rx="8" fill="url(#accent)" fill-opacity="0.55"/>
    <rect x="60" y="286" width="200" height="36" rx="8" fill="#ffffff" fill-opacity="0.07"/>
    <rect x="60" y="342" width="200" height="36" rx="8" fill="#ffffff" fill-opacity="0.07"/>
    <rect x="350" y="170" width="596" height="150" rx="14" fill="#ffffff" fill-opacity="0.05"/>
    <polyline points="380,290 460,250 540,270 620,210 700,240 780,180 860,210 920,170" fill="none" stroke="url(#accent)" stroke-width="4" stroke-linecap="round" stroke-linejoin="round"/>
    <rect x="350" y="344" width="184" height="126" rx="14" fill="#ffffff" fill-opacity="0.05"/>
    <rect x="556" y="344" width="184" height="126" rx="14" fill="#ffffff" fill-opacity="0.05"/>
    <rect x="762" y="344" width="184" height="126" rx="14" fill="#ffffff" fill-opacity="0.05"/>
  </g>
  <text x="150" y="710" font-family="Inter, system-ui, sans-serif" font-size="34" font-weight="700" fill="#f8fafc">Nova Analytics Dashboard</text>
</svg>
