<svg xmlns="http://www.w3.org/2000/svg" viewBox="0 0 1280 800" width="1280" height="800" role="img" aria-label="ShopFlow Storefront preview">
  <defs>
    <linearGradient id="bg" x1="0" y1="0" x2="1" y2="1">
      <stop offset="0" stop-color="#050816"/>
      <stop offset="1" stop-color="#0a1024"/>
    </linearGradient>
    <radialGradient id="glow" cx="0.3" cy="0.25" r="0.6">
      <stop offset="0" stop-color="#06b6d4" stop-opacity="0.4"/>
      <stop offset="1" stop-color="#06b6d4" stop-opacity="0"/>
    </radialGradient>
    <linearGradient id="accent" x1="0" y1="0" x2="1" y2="0">
      <stop offset="0" stop-color="#06b6d4"/>
      <stop offset="1" stop-color="#3b82f6"/>
    </linearGradient>
  </defs>
  <rect width="1280" height="800" fill="url(#bg)"/>
  <rect width="1280" height="800" fill="url(#glow)"/>
  <g transform="translate(150 150)">
    <rect width="980" height="500" rx="22" fill="#ffffff" fill-opacity="0.04" stroke="#ffffff" stroke-opacity="0.10"/>
    <circle cx="34" cy="34" r="7" fill="#ef4444" fill-opacity="0.7"/>
    <circle cx="60" cy="34" r="7" fill="#f5b545" fill-opacity="0.7"/>
    <circle cx="86" cy="34" r="7" fill="#10b981" fill-opacity="0.7"/>
    <rect x="34" y="86" width="200" height="14" rx="7" fill="#ffffff" fill-opacity="0.16"/>
    <rect x="760" y="80" width="186" height="36" rx="18" fill="url(#accent)" fill-opacity="0.6"/>
    <g fill="#ffffff" fill-opacity="0.05">
      <rect x="34" y="150" width="290" height="150" rx="14"/>
      <rect x="346" y="150" width="290" height="150" rx="14"/>
      <rect x="658" y="150" width="288" height="150" rx="14"/>
      <rect x="34" y="320" width="290" height="150" rx="14"/>
      <rect x="346" y="320" width="290" height="150" rx="14"/>
      <rect x="658" y="320" width="288" height="150" rx="14"/>
    </g>
    <rect x="58" y="262" width="120" height="22" rx="11" fill="url(#accent)" fill-opacity="0.6"/>
    <rect x="370" y="262" width="120" height="22" rx="11" fill="#ffffff" fill-opacity="0.12"/>
    <rect x="682" y="262" width="120" height="22" rx="11" fill="#ffffff" fill-opacity="0.12"/>
  </g>
  <text x="150" y="710" font-family="Inter, system-ui, sans-serif" font-size="34" font-weight="700" fill="#f8fafc">ShopFlow Storefront</text>
</svg>
