<svg xmlns="http://www.w3.org/2000/svg" viewBox="0 0 1280 800" width="1280" height="800" role="img" aria-label="TaskPilot preview">
  <defs>
    <linearGradient id="bg" x1="0" y1="0" x2="1" y2="1">
      <stop offset="0" stop-color="#050816"/>
      <stop offset="1" stop-color="#0a1024"/>
    </linearGradient>
    <radialGradient id="glow" cx="0.3" cy="0.3" r="0.6">
      <stop offset="0" stop-color="#8b5cf6" stop-opacity="0.4"/>
      <stop offset="1" stop-color="#8b5cf6" stop-opacity="0"/>
    </radialGradient>
    <linearGradient id="accent" x1="0" y1="0" x2="1" y2="0">
      <stop offset="0" stop-color="#8b5cf6"/>
      <stop offset="1" stop-color="#06b6d4"/>
    </linearGradient>
  </defs>
  <rect width="1280" height="800" fill="url(#bg)"/>
  <rect width="1280" height="800" fill="url(#glow)"/>
  <g transform="translate(190 170)">
    <rect width="900" height="460" rx="22" fill="#ffffff" fill-opacity="0.04" stroke="#ffffff" stroke-opacity="0.10"/>
    <g>
      <rect x="36" y="40" width="260" height="384" rx="16" fill="#ffffff" fill-opacity="0.03"/>
      <rect x="320" y="40" width="260" height="384" rx="16" fill="#ffffff" fill-opacity="0.03"/>
      <rect x="604" y="40" width="260" height="384" rx="16" fill="#ffffff" fill-opacity="0.03"/>
    </g>
    <rect x="60" y="70" width="120" height="12" rx="6" fill="url(#accent)" fill-opacity="0.7"/>
    <rect x="344" y="70" width="120" height="12" rx="6" fill="#ffffff" fill-opacity="0.12"/>
    <rect x="628" y="70" width="120" height="12" rx="6" fill="#ffffff" fill-opacity="0.12"/>
    <g fill="#ffffff" fill-opacity="0.06">
      <rect x="60" y="104" width="212" height="64" rx="10"/>
      <rect x="60" y="180" width="212" height="64" rx="10"/>
      <rect x="344" y="104" width="212" height="64" rx="10"/>
      <rect x="628" y="104" width="212" height="64" rx="10"/>
      <rect x="628" y="180" width="212" height="64" rx="10"/>
    </g>
  </g>
  <text x="190" y="700" font-family="Inter, system-ui, sans-serif" font-size="32" font-weight="700" fill="#f8fafc">TaskPilot</text>
</svg>
