<svg xmlns="http://www.w3.org/2000/svg" viewBox="0 0 1280 800" width="1280" height="800" role="img" aria-label="VisionLab preview">
  <defs>
    <linearGradient id="bg" x1="0" y1="0" x2="1" y2="1">
      <stop offset="0" stop-color="#050816"/>
      <stop offset="1" stop-color="#0a1024"/>
    </linearGradient>
    <radialGradient id="glow" cx="0.7" cy="0.3" r="0.6">
      <stop offset="0" stop-color="#10b981" stop-opacity="0.34"/>
      <stop offset="1" stop-color="#10b981" stop-opacity="0"/>
    </radialGradient>
    <linearGradient id="accent" x1="0" y1="0" x2="1" y2="0">
      <stop offset="0" stop-color="#06b6d4"/>
      <stop offset="1" stop-color="#10b981"/>
    </linearGradient>
  </defs>
  <rect width="1280" height="800" fill="url(#bg)"/>
  <rect width="1280" height="800" fill="url(#glow)"/>
  <g transform="translate(190 170)">
    <rect width="900" height="460" rx="22" fill="#ffffff" fill-opacity="0.04" stroke="#ffffff" stroke-opacity="0.10"/>
    <g fill="#ffffff" fill-opacity="0.05">
      <rect x="40" y="44" width="252" height="180" rx="14"/>
      <rect x="324" y="44" width="252" height="180" rx="14"/>
      <rect x="608" y="44" width="252" height="180" rx="14"/>
      <rect x="40" y="240" width="252" height="176" rx="14"/>
      <rect x="324" y="240" width="252" height="176" rx="14"/>
      <rect x="608" y="240" width="252" height="176" rx="14"/>
    </g>
    <rect x="60" y="190" width="120" height="20" rx="10" fill="url(#accent)" fill-opacity="0.75"/>
    <rect x="344" y="190" width="90" height="20" rx="10" fill="#ffffff" fill-opacity="0.12"/>
    <circle cx="690" cy="134" r="44" fill="none" stroke="url(#accent)" stroke-width="4"/>
    <path d="M674 134 l12 12 l22 -26" fill="none" stroke="url(#accent)" stroke-width="5" stroke-linecap="round" stroke-linejoin="round"/>
  </g>
  <text x="190" y="700" font-family="Inter, system-ui, sans-serif" font-size="32" font-weight="700" fill="#f8fafc">VisionLab</text>
</svg>
